<?xml version="1.0" encoding="UTF-8" standalone="no"?><!DOCTYPE svg PUBLIC "-//W3C//DTD SVG 1.1//EN" "http://www.w3.org/Graphics/SVG/1.1/DTD/svg11.dtd"><svg width="100%" height="100%" viewBox="0 0 1271 667" version="1.1" xmlns="http://www.w3.org/2000/svg" xmlns:xlink="http://www.w3.org/1999/xlink" xml:space="preserve" xmlns:serif="http://www.serif.com/" style="fill-rule:evenodd;clip-rule:evenodd;stroke-linejoin:round;stroke-miterlimit:2;"><g><path d="M1133.33,266.667c-62.129,-0 -114.329,-42.493 -129.133,-100l-152.821,-0c-32.587,-0 -60.4,23.56 -65.758,55.706l-5.479,32.88c-5.204,31.218 -20.996,58.388 -43.329,78.08c22.333,19.693 38.125,46.862 43.329,78.08l5.479,32.879c5.358,32.146 33.171,55.708 65.758,55.708l19.488,0c14.804,-57.508 67.004,-100 129.133,-100c73.638,0 133.333,59.696 133.333,133.333c0,73.638 -59.696,133.334 -133.333,133.334c-62.129,-0 -114.333,-42.492 -129.133,-100l-19.488,-0c-65.179,-0 -120.804,-47.121 -131.521,-111.413l-5.479,-32.879c-5.358,-32.147 -33.171,-55.708 -65.758,-55.708l-52.821,-0c-14.8,57.508 -67.004,100 -129.133,100c-62.128,-0 -114.332,-42.492 -129.133,-100l-75.068,-0c-14.801,57.508 -67.005,100 -129.133,100c-73.638,-0 -133.333,-59.696 -133.333,-133.334c0,-73.638 59.695,-133.333 133.333,-133.333c62.128,0 114.332,42.493 129.133,100l75.068,0c14.801,-57.507 67.005,-100 129.133,-100c62.129,0 114.333,42.493 129.133,100l52.821,0c32.587,0 60.4,-23.561 65.758,-55.707l5.479,-32.88c10.717,-64.291 66.342,-111.413 131.521,-111.413l152.821,0c14.8,-57.507 67.004,-100 129.133,-100c73.638,0 133.334,59.695 133.334,133.333c-0,73.638 -59.696,133.334 -133.334,133.334Zm0,-66.667c36.821,0 66.667,-29.847 66.667,-66.667c0,-36.819 -29.846,-66.666 -66.667,-66.666c-36.821,-0 -66.666,29.847 -66.666,66.666c-0,36.82 29.845,66.667 66.666,66.667Zm-1000,200c36.819,0 66.667,-29.847 66.667,-66.667c-0,-36.819 -29.848,-66.666 -66.667,-66.666c-36.819,-0 -66.666,29.847 -66.666,66.666c-0,36.82 29.847,66.667 66.666,66.667Zm400,-66.667c0,36.82 -29.846,66.667 -66.666,66.667c-36.821,0 -66.667,-29.847 -66.667,-66.667c-0,-36.819 29.846,-66.666 66.667,-66.666c36.82,-0 66.666,29.847 66.666,66.666Zm533.334,200c-0,36.821 -29.846,66.667 -66.667,66.667c-36.821,0 -66.667,-29.846 -66.667,-66.667c0,-36.82 29.846,-66.666 66.667,-66.666c36.821,-0 66.667,29.846 66.667,66.666Z" style="fill:#ea4b71;"/></g></svg>