<?xml version="1.0" encoding="UTF-8" standalone="no"?><!DOCTYPE svg PUBLIC "-//W3C//DTD SVG 1.1//EN" "http://www.w3.org/Graphics/SVG/1.1/DTD/svg11.dtd"><svg width="100%" height="100%" viewBox="0 0 1005 1005" version="1.1" xmlns="http://www.w3.org/2000/svg" xmlns:xlink="http://www.w3.org/1999/xlink" xml:space="preserve" xmlns:serif="http://www.serif.com/" style="fill-rule:evenodd;clip-rule:evenodd;stroke-linejoin:round;stroke-miterlimit:2;"><g><circle cx="502.5" cy="502.5" r="495.833" style="fill:#a1d33c;"/><g><path d="M380.417,697.083c-7.917,25.834 -18.334,40.417 -52.917,40.417c-29.167,0 -42.5,-11.25 -42.5,-29.167c0,-5.833 1.25,-12.5 3.333,-18.333l117.917,-414.167c7.917,-25.833 18.333,-40.416 52.083,-40.416c30,-0 42.917,11.25 42.917,29.166c0,6.667 -2.083,12.5 -3.75,19.584l-117.083,412.916Z" style="fill:#fff;fill-rule:nonzero;"/><path d="M607.083,697.083c-7.916,25.834 -18.333,40.417 -52.916,40.417c-29.167,0 -42.5,-11.25 -42.5,-29.167c-0,-5.833 1.25,-12.5 3.333,-18.333l117.917,-414.167c7.916,-25.833 18.333,-40.416 52.083,-40.416c30,-0 42.917,11.25 42.917,29.166c-0,6.667 -2.084,12.5 -3.75,19.584l-117.084,412.916Z" style="fill:#fff;fill-rule:nonzero;"/></g></g></svg>